<svg width="41" height="40" viewBox="0 0 41 40" fill="none" xmlns="http://www.w3.org/2000/svg">
<path d="M9.42971 3.54687C8.72658 3.77343 8.27346 4.17187 7.96877 4.84374C7.80471 5.20312 7.76565 5.39062 7.76565 5.95312V6.62499L6.69533 6.65624C5.80471 6.68749 5.53908 6.71874 5.16408 6.86718C4.2969 7.20312 3.55471 7.97656 3.21096 8.88281L3.03908 9.33593L3.01565 21.3281C3.00002 30.0391 3.01565 33.4453 3.07815 33.7891C3.25783 34.7266 3.93752 35.6641 4.76565 36.1094C5.64846 36.5859 4.71877 36.5625 20.4766 36.5625C30.7578 36.5625 34.9844 36.5391 35.2813 36.4766C36.211 36.2812 37.0391 35.7031 37.5078 34.9141C38.0156 34.0625 38 34.375 38 25.6797V17.8047L37.8047 17.6172C37.5547 17.3594 37.1953 17.3594 36.9453 17.6172L36.75 17.8047V25.6562C36.75 33.3906 36.75 33.5156 36.586 33.9375C36.3828 34.4922 35.8125 35.0234 35.2422 35.1953C34.8985 35.2969 33.0703 35.3125 20.5 35.3125C4.6094 35.3125 5.68752 35.3516 5.0469 34.7969C4.68752 34.4922 4.32815 33.875 4.32815 33.5547V33.3594H17.7578H31.1875L31.5391 32.9453C32.0625 32.3203 35.3047 28.1094 35.4063 27.9141C35.4766 27.7891 35.5 25.8828 35.5 20.6328V13.5156H36.125H36.75V14.6172V15.7187L36.9766 15.9453C37.1016 16.0703 37.2813 16.1719 37.375 16.1719C37.4688 16.1719 37.6485 16.0703 37.7735 15.9453L38 15.7187V12.6797C38 9.38281 37.9688 9.10937 37.5547 8.34374C37.2656 7.81249 36.6094 7.22656 35.9922 6.92968C35.5 6.70312 35.3906 6.67968 34.3672 6.64062L33.2735 6.60156L33.2266 5.85937C33.1797 4.99999 33.0625 4.67968 32.6172 4.19531C32.1641 3.70312 31.625 3.48437 30.8906 3.48437C29.5235 3.48437 28.6328 4.42968 28.5625 5.95312L28.5313 6.64062H25.6953H22.8594L22.8281 5.87499C22.7891 5.04687 22.6641 4.70312 22.211 4.1875C21.8985 3.82812 21.25 3.51562 20.7188 3.46093C19.7891 3.36718 18.8281 3.89843 18.4219 4.73437C18.2422 5.10937 18.1953 5.31249 18.1719 5.91406L18.1406 6.64062H15.3047H12.4688L12.4375 5.91406C12.3985 5.05468 12.2266 4.61718 11.75 4.14062C11.5703 3.96093 11.2578 3.74218 11.0625 3.65625C10.6094 3.45312 9.8594 3.40625 9.42971 3.54687ZM10.6641 4.86718C11.0469 5.11718 11.2031 5.48437 11.2031 6.10937V6.64062H10.1094H9.01565V6.08593C9.01565 5.40624 9.15627 5.08593 9.5469 4.85937C9.9219 4.64062 10.3281 4.64062 10.6641 4.86718ZM20.9531 4.79687C21.4297 5.04687 21.5547 5.27343 21.586 5.98437L21.6094 6.64062H20.5078H19.4063V6.07031C19.4063 5.64843 19.4453 5.44531 19.5625 5.24999C19.8672 4.74999 20.4844 4.55468 20.9531 4.79687ZM31.4141 4.82031C31.8438 5.02343 31.9844 5.32031 31.9844 6.03124V6.64062H30.8828H29.7813L29.8047 6.02343C29.8438 5.32031 29.9766 5.05468 30.4297 4.82812C30.7656 4.65624 31.0625 4.64843 31.4141 4.82031ZM7.76565 8.71093C7.76565 9.71093 7.9219 10.2031 8.40627 10.6953C8.85158 11.1406 9.26565 11.3437 9.83596 11.3828C10.4297 11.4375 10.6875 11.2656 10.6875 10.8359C10.6875 10.4687 10.4922 10.2578 10.086 10.1953C9.24221 10.0547 9.01565 9.72656 9.01565 8.64843V7.89062H13.5781H18.1406L18.1719 8.80468C18.1953 9.61718 18.2266 9.77343 18.4063 10.125C18.8125 10.8984 19.6094 11.4062 20.4297 11.4062C20.7344 11.4062 20.8281 11.375 20.961 11.2031C21.0547 11.0859 21.125 10.9141 21.125 10.8125C21.125 10.5312 20.8125 10.2344 20.461 10.1797C19.6719 10.0625 19.4063 9.66406 19.4063 8.60156V7.89062H23.9688H28.5235L28.5625 8.76562C28.586 9.42968 28.6406 9.73437 28.7578 10.0078C29.1172 10.8047 29.8438 11.3281 30.6797 11.3906C31.0703 11.4219 31.1563 11.3984 31.3281 11.2422C31.5391 11.0469 31.5781 10.6719 31.4063 10.4531C31.2891 10.2969 30.9531 10.1562 30.6953 10.1562C30.4531 10.1562 30.0391 9.79687 29.9063 9.47656C29.8438 9.32812 29.7969 8.94531 29.7969 8.55468V7.89062H32.4453H35.0938L35.5938 8.14843C36.125 8.42187 36.5156 8.89062 36.6719 9.43749C36.711 9.59374 36.75 10.2969 36.75 10.9922V12.2656H23.0625H9.37502L9.19533 12.4375C8.94533 12.6719 8.95315 13.0391 9.21877 13.2891L9.4219 13.4766L21.836 13.5L34.25 13.5156V20.2734V27.0312H32.1641C30.1328 27.0312 30.0781 27.0391 29.8985 27.2031C29.6641 27.4219 29.6641 27.5703 29.9531 29.9531C30.086 31.0156 30.1875 31.9375 30.1875 32C30.1875 32.0937 28.2422 32.1094 17.2188 32.1094H4.25002V22.8125V13.5156H5.65627C7.2344 13.5156 7.5469 13.4453 7.69533 13.0781C7.77346 12.8516 7.67971 12.4766 7.50002 12.3594C7.45315 12.3281 6.71096 12.2891 5.85158 12.2656L4.28908 12.2266L4.26565 11.0234C4.24221 9.55468 4.33596 9.14062 4.82033 8.61718C5.35158 8.03906 5.75783 7.89062 6.85158 7.89062H7.76565V8.71093ZM33.4922 28.3828C33.3125 28.6797 31.4063 31.0859 31.375 31.0625C31.336 31.0234 31.0469 28.7344 31.0469 28.4531C31.0469 28.2812 31.0547 28.2812 32.2969 28.2812C33.3125 28.2812 33.5391 28.3047 33.4922 28.3828Z" fill="#F7F6F6"/>
<path d="M15.1797 15.9375C13 16.2735 11.5234 18.2891 11.8047 20.5391C11.8906 21.211 12.7813 24.4297 13.2891 25.8985C13.9297 27.75 14.8125 29.2031 15.5156 29.5781C15.7891 29.7188 16.3047 29.7188 16.5781 29.5781C16.9922 29.3672 17.1406 29.1016 17.4531 28.0703C17.9219 26.5156 18.4141 25.3438 18.8359 24.7813C18.9688 24.6016 19.0859 24.5313 19.25 24.5313C19.4141 24.5313 19.5313 24.6016 19.6719 24.7813C20.0156 25.2422 20.5 26.3438 20.9375 27.6953C21.4141 29.1641 21.4922 29.3125 21.8516 29.5313C22.7734 30.0938 23.8906 29.1719 24.75 27.1328C25.3984 25.5938 26.6563 21.3125 26.7266 20.3906C26.7813 19.6406 26.5938 18.6719 26.2656 18.0156C25.6563 16.8125 24.0469 15.8594 22.6094 15.8594C21.9688 15.8594 21.1875 16.086 20.1953 16.5547L19.2188 17.0156L18.4766 16.6406C17.2031 16.0078 16.1797 15.7891 15.1797 15.9375ZM16.4453 17.1875C16.6719 17.2344 17.2813 17.461 17.7969 17.7031C18.5859 18.0703 18.8281 18.2266 19.2891 18.6641C19.9141 19.2656 20.3281 19.5235 21.0234 19.7578C21.7188 19.9922 22.1641 19.9766 22.3672 19.7188C22.7188 19.2735 22.4688 18.8203 21.7969 18.6875C21.3594 18.6016 20.7656 18.3281 20.4297 18.0625L20.25 17.9141L20.5469 17.7422C20.7031 17.6485 21.1016 17.4766 21.4297 17.3672C22.2266 17.1016 23.2031 17.1328 23.875 17.4375C24.4922 17.7266 24.9688 18.1875 25.2344 18.7735C25.4375 19.211 25.4609 19.336 25.4531 20.0391C25.4453 20.7735 25.4141 20.9453 24.8516 22.8516C24.5313 23.9688 24.1484 25.1953 24.0156 25.586C23.6953 26.5156 23.0703 27.7735 22.7578 28.1563L22.5078 28.4531L22.0859 27.1797C21.5938 25.6875 20.9531 24.2969 20.5469 23.8438C20.1641 23.4219 19.8359 23.2813 19.2578 23.2813C18.6641 23.2813 18.2734 23.4688 17.9297 23.8985C17.4375 24.5156 16.75 26.125 16.3125 27.6797C16.1953 28.0938 16.0703 28.4375 16.0391 28.4375C16.0078 28.4375 15.8594 28.2735 15.7109 28.0625C15.0391 27.1406 14.4141 25.5156 13.5313 22.4219C13.1094 20.9297 13.0547 20.6641 13.0469 20C13.0391 19.3047 13.0625 19.211 13.2969 18.7266C13.5859 18.1406 14.0078 17.7344 14.6172 17.4453C15.2813 17.1406 15.7891 17.0625 16.4453 17.1875Z" fill="#F7F6F6"/>
</svg>
